<svg xmlns="http://www.w3.org/2000/svg" viewBox="0 0 270 64" role="img" aria-label="StageSync">
  <title>StageSync</title>
  <g>
    <rect width="64" height="64" rx="14" fill="#18181b"/>
    <g stroke="#3f3f46" stroke-width="2.5" stroke-linecap="round">
      <line x1="12" y1="22" x2="52" y2="22"/>
      <line x1="12" y1="32" x2="52" y2="32"/>
      <line x1="12" y1="42" x2="52" y2="42"/>
    </g>
    <g fill="#52525b">
      <rect x="16" y="18.5" width="10" height="7" rx="1.5"/>
      <rect x="16" y="28.5" width="10" height="7" rx="1.5"/>
      <rect x="16" y="38.5" width="10" height="7" rx="1.5"/>
    </g>
    <line x1="36" y1="12" x2="36" y2="52" stroke="#fbbf24" stroke-width="3" stroke-linecap="round"/>
    <path d="M36 8 L40.5 14 L36 16.5 L31.5 14 Z" fill="#fbbf24"/>
    <g stroke="#fbbf24" stroke-width="2" stroke-linecap="round">
      <line x1="31" y1="22" x2="41" y2="22"/>
      <line x1="31" y1="32" x2="41" y2="32"/>
      <line x1="31" y1="42" x2="41" y2="42"/>
    </g>
  </g>
  <path fill="#fafafa" d="M88.10 46.68Q84.53 46.68 82.08 45.55Q79.64 44.42 78.38 42.45Q77.12 40.49 77.12 37.94L82.84 37.94Q82.84 38.94 83.40 39.81Q83.96 40.67 85.11 41.19Q86.26 41.72 88.10 41.72Q89.75 41.72 90.87 41.28Q91.98 40.85 92.56 40.08Q93.14 39.30 93.14 38.30Q93.14 37.04 92.06 36.30Q90.98 35.56 88.56 35.34L86.58 35.16Q82.66 34.84 80.32 32.72Q77.98 30.59 77.98 27.10Q77.98 24.58 79.19 22.74Q80.39 20.91 82.55 19.92Q84.71 18.93 87.66 18.93Q90.76 18.93 92.97 19.99Q95.19 21.05 96.38 22.98Q97.56 24.90 97.56 27.50L91.80 27.50Q91.80 26.52 91.34 25.71Q90.87 24.90 89.95 24.40Q89.03 23.90 87.66 23.90Q86.37 23.90 85.49 24.33Q84.60 24.76 84.17 25.50Q83.74 26.24 83.74 27.10Q83.74 28.22 84.53 29.04Q85.32 29.87 87.12 30.02L89.14 30.20Q92.02 30.45 94.22 31.44Q96.41 32.43 97.65 34.14Q98.90 35.85 98.90 38.30Q98.90 40.82 97.58 42.71Q96.27 44.60 93.86 45.64Q91.44 46.68 88.10 46.68 M113.66 46.25L110.88 46.25Q107.90 46.25 106.06 45.51Q104.22 44.78 103.38 43.03Q102.53 41.28 102.53 38.30L102.53 20.94L107.90 20.94L107.90 38.51Q107.90 39.92 108.63 40.65Q109.37 41.39 110.74 41.39L113.66 41.39L113.66 46.25M113.66 30.48L99.54 30.48L99.54 26.27L113.66 26.27 M133.31 46L128.74 46L128.74 40.17L127.77 40.17L127.77 33.83Q127.77 32.32 127.05 31.56Q126.33 30.81 124.74 30.81Q123.95 30.81 122.66 30.84Q121.36 30.88 119.99 30.95Q118.62 31.02 117.51 31.10L117.51 26.24Q118.34 26.16 119.45 26.09Q120.57 26.02 121.76 25.98Q122.94 25.95 123.99 25.95Q127.01 25.95 129.08 26.81Q131.15 27.68 132.23 29.42Q133.31 31.17 133.31 33.90L133.31 46M122.44 46.50Q120.32 46.50 118.71 45.75Q117.11 44.99 116.21 43.57Q115.31 42.15 115.31 40.17Q115.31 38.01 116.43 36.62Q117.54 35.24 119.56 34.57Q121.58 33.90 124.20 33.90L128.42 33.90L128.42 37.11L124.17 37.11Q122.66 37.11 121.85 37.85Q121.04 38.58 121.04 39.84Q121.04 41.03 121.85 41.77Q122.66 42.51 124.17 42.51Q125.14 42.51 125.91 42.17Q126.69 41.82 127.19 41Q127.70 40.17 127.77 38.69L129.14 40.13Q128.96 42.18 128.15 43.59Q127.34 44.99 125.91 45.75Q124.49 46.50 122.44 46.50 M145.26 53.85Q143.82 53.85 142.31 53.74Q140.80 53.63 139.54 53.45L139.54 48.59Q140.80 48.77 142.33 48.90Q143.86 49.02 145.12 49.02Q147.46 49.02 148.92 48.48Q150.38 47.94 151.06 46.85Q151.74 45.75 151.74 44.02L151.74 40.10L152.79 37.79Q152.72 40.42 151.76 42.29Q150.81 44.16 149.12 45.15Q147.42 46.14 145.08 46.14Q143.07 46.14 141.43 45.41Q139.79 44.67 138.64 43.34Q137.49 42 136.88 40.22Q136.26 38.44 136.26 36.35L136.26 35.52Q136.26 33.44 136.91 31.64Q137.56 29.84 138.78 28.50Q140.01 27.17 141.70 26.43Q143.39 25.70 145.44 25.70Q147.82 25.70 149.57 26.74Q151.31 27.78 152.32 29.80Q153.33 31.82 153.40 34.66L152.61 34.88L152.61 26.27L157.18 26.27L157.18 43.66Q157.18 47.30 155.88 49.53Q154.59 51.76 151.94 52.80Q149.30 53.85 145.26 53.85M146.88 41.28Q148.22 41.28 149.30 40.69Q150.38 40.10 151.01 38.98Q151.64 37.86 151.64 36.28L151.64 35.24Q151.64 33.69 150.97 32.63Q150.30 31.56 149.22 31.01Q148.14 30.45 146.92 30.45Q145.48 30.45 144.36 31.13Q143.25 31.82 142.64 33.04Q142.02 34.26 142.02 35.92Q142.02 37.61 142.65 38.82Q143.28 40.02 144.38 40.65Q145.48 41.28 146.88 41.28 M170.50 46.68Q167.98 46.68 166.05 45.82Q164.13 44.96 162.85 43.50Q161.57 42.04 160.91 40.22Q160.24 38.40 160.24 36.50L160.24 35.78Q160.24 33.80 160.91 31.98Q161.57 30.16 162.83 28.72Q164.09 27.28 165.98 26.43Q167.87 25.59 170.28 25.59Q173.45 25.59 175.63 27.01Q177.81 28.43 178.96 30.72Q180.11 33 180.11 35.70L180.11 37.65L162.65 37.65L162.65 34.37L176.62 34.37L174.75 35.88Q174.75 34.12 174.24 32.86Q173.74 31.60 172.75 30.93Q171.76 30.27 170.28 30.27Q168.77 30.27 167.73 30.95Q166.68 31.64 166.14 32.95Q165.60 34.26 165.60 36.17Q165.60 37.94 166.11 39.25Q166.61 40.56 167.69 41.28Q168.77 42 170.50 42Q172.08 42 173.09 41.39Q174.10 40.78 174.46 39.88L179.75 39.88Q179.32 41.86 178.06 43.41Q176.80 44.96 174.89 45.82Q172.98 46.68 170.50 46.68"/>
  <path fill="#fbbf24" d="M192.68 46.68Q189.11 46.68 186.66 45.55Q184.22 44.42 182.96 42.45Q181.70 40.49 181.70 37.94L187.42 37.94Q187.42 38.94 187.98 39.81Q188.54 40.67 189.69 41.19Q190.84 41.72 192.68 41.72Q194.33 41.72 195.45 41.28Q196.56 40.85 197.14 40.08Q197.72 39.30 197.72 38.30Q197.72 37.04 196.64 36.30Q195.56 35.56 193.14 35.34L191.16 35.16Q187.24 34.84 184.90 32.72Q182.56 30.59 182.56 27.10Q182.56 24.58 183.77 22.74Q184.97 20.91 187.13 19.92Q189.29 18.93 192.24 18.93Q195.34 18.93 197.55 19.99Q199.77 21.05 200.96 22.98Q202.14 24.90 202.14 27.50L196.38 27.50Q196.38 26.52 195.92 25.71Q195.45 24.90 194.53 24.40Q193.61 23.90 192.24 23.90Q190.95 23.90 190.07 24.33Q189.18 24.76 188.75 25.50Q188.32 26.24 188.32 27.10Q188.32 28.22 189.11 29.04Q189.90 29.87 191.70 30.02L193.72 30.20Q196.60 30.45 198.80 31.44Q200.99 32.43 202.23 34.14Q203.48 35.85 203.48 38.30Q203.48 40.82 202.16 42.71Q200.85 44.60 198.44 45.64Q196.02 46.68 192.68 46.68 M209.81 53.81L206.28 53.81L206.28 48.92L210.39 48.92Q211.32 48.92 211.97 48.68Q212.62 48.45 213.02 47.91Q213.41 47.37 213.66 46.43L218.52 26.27L224 26.27L218.49 47.58Q217.91 49.89 216.89 51.26Q215.86 52.62 214.15 53.22Q212.44 53.81 209.81 53.81M216.65 45.57L212.48 45.57L212.48 41.07L216.65 41.07L216.65 45.57M215.57 45.57L210.10 45.57L204.05 26.27L209.85 26.27 M232.06 46L226.30 46L226.30 26.27L230.87 26.27L230.87 34.73L230.55 34.73Q230.55 31.71 231.32 29.69Q232.10 27.68 233.68 26.67Q235.26 25.66 237.53 25.66L237.78 25.66Q241.24 25.66 243.06 27.91Q244.88 30.16 244.88 34.73L244.88 46L239.12 46L239.12 34.41Q239.12 32.82 238.18 31.82Q237.24 30.81 235.66 30.81Q234.04 30.81 233.05 31.83Q232.06 32.86 232.06 34.52 M257.91 46.68Q255.35 46.68 253.46 45.84Q251.57 44.99 250.31 43.55Q249.05 42.11 248.44 40.29Q247.83 38.48 247.83 36.53L247.83 35.85Q247.83 33.83 248.48 31.98Q249.12 30.12 250.38 28.68Q251.64 27.24 253.53 26.42Q255.42 25.59 257.87 25.59Q260.54 25.59 262.59 26.61Q264.64 27.64 265.86 29.48Q267.09 31.31 267.23 33.69L261.58 33.69Q261.44 32.36 260.52 31.44Q259.60 30.52 257.87 30.52Q256.43 30.52 255.48 31.24Q254.52 31.96 254.06 33.22Q253.59 34.48 253.59 36.21Q253.59 37.79 254.02 39.07Q254.45 40.35 255.41 41.05Q256.36 41.75 257.91 41.75Q259.06 41.75 259.87 41.34Q260.68 40.92 261.17 40.19Q261.65 39.45 261.76 38.48L267.38 38.48Q267.27 40.92 266.01 42.78Q264.75 44.63 262.66 45.66Q260.57 46.68 257.91 46.68"/>
</svg>
